<?xml version="1.0" encoding="UTF-8" standalone="no"?>
<svg
   xmlns:dc="http://purl.org/dc/elements/1.1/"
   xmlns:cc="http://creativecommons.org/ns#"
   xmlns:rdf="http://www.w3.org/1999/02/22-rdf-syntax-ns#"
   xmlns:svg="http://www.w3.org/2000/svg"
   xmlns="http://www.w3.org/2000/svg"
   xmlns:xlink="http://www.w3.org/1999/xlink"
   xmlns:sodipodi="http://sodipodi.sourceforge.net/DTD/sodipodi-0.dtd"
   xmlns:inkscape="http://www.inkscape.org/namespaces/inkscape"
   width="62"
   height="55.08849"
   viewBox="0 0 62 55.08849"
   fill="none"
   version="1.1"
   id="svg26"
   sodipodi:docname="reveal-white-text.svg"
   inkscape:version="1.0.2 (e86c870879, 2021-01-15)">
  <metadata
     id="metadata32">
    <rdf:RDF>
      <cc:Work
         rdf:about="">
        <dc:format>image/svg+xml</dc:format>
        <dc:type
           rdf:resource="http://purl.org/dc/dcmitype/StillImage" />
      </cc:Work>
    </rdf:RDF>
  </metadata>
  <defs
     id="defs30">
    <linearGradient
       inkscape:collect="always"
       id="linearGradient1005">
      <stop
         style="stop-color:#982059;stop-opacity:1"
         offset="0"
         id="stop1001" />
      <stop
         style="stop-color:#d7478b;stop-opacity:0.89803922"
         offset="1"
         id="stop1003" />
    </linearGradient>
    <inkscape:path-effect
       effect="perspective-envelope"
       up_left_point="-10.634523,67.55"
       up_right_point="42.365477,56.55"
       down_left_point="-10.634523,101.1"
       down_right_point="42.365477,112.9"
       id="path-effect995"
       is_visible="true"
       lpeversion="1"
       deform_type="perspective"
       horizontal_mirror="false"
       vertical_mirror="false"
       overflow_perspective="false" />
    <linearGradient
       inkscape:collect="always"
       xlink:href="#linearGradient1005"
       id="linearGradient1007"
       x1="-20.980137"
       y1="56.026225"
       x2="78.953474"
       y2="56.026225"
       gradientUnits="userSpaceOnUse" />
  </defs>
  <sodipodi:namedview
     pagecolor="#ffffff"
     bordercolor="#666666"
     borderopacity="1"
     objecttolerance="10"
     gridtolerance="10"
     guidetolerance="10"
     inkscape:pageopacity="0"
     inkscape:pageshadow="2"
     inkscape:window-width="1868"
     inkscape:window-height="1018"
     id="namedview28"
     showgrid="false"
     inkscape:snap-bbox="false"
     inkscape:bbox-paths="false"
     inkscape:bbox-nodes="true"
     inkscape:zoom="4.6855128"
     inkscape:cx="-7.9437071"
     inkscape:cy="24.916699"
     inkscape:window-x="0"
     inkscape:window-y="0"
     inkscape:window-maximized="1"
     inkscape:current-layer="g993"
     inkscape:snap-intersection-paths="true"
     inkscape:snap-nodes="false"
     inkscape:snap-others="false" />
  <path
     fill-rule="evenodd"
     clip-rule="evenodd"
     d="m 59,42.128736 v -28.4461 L 12,3.2807856 V 51.859536 Z m 1.4055,2.7727 C 61.3341,44.709136 62,43.891236 62,42.942936 v -30.0632 c 0,-0.938 -0.6519,-1.75 -1.5678,-1.9527 l -49,-10.84451143 C 10.1836,-0.19380543 9,0.75648557 9,2.0352756 l -10e-6,51.0524604 c 0,1.2676 1.16421,2.2155 2.40551,1.9585 z"
     fill="#d53f8c"
     id="path2" />
  <path
     d="m 0,12.145536 c 0,-0.9483 0.665933,-1.7662 1.59452,-1.9585 L 50.5945,0.04225457 C 51.8358,-0.21473743 53,0.73310557 53,2.0007256 V 53.053236 c 0,1.2788 -1.1836,2.229 -2.4322,1.9527 L 1.56783,44.161536 C 0.651943,43.958836 0,43.146736 0,42.208736 Z"
     fill="#f2e142"
     id="path4" />
  <style
     type="text/css"
     id="style877">
	.st0{fill:#FF3E00;}
	.st1{fill:#FFFFFF;}
</style>
  <g
     id="g993"
     transform="translate(10.373981,-57.260108)"
     inkscape:path-effect="#path-effect995">
    <g
       id="g893"
       transform="matrix(0.33499573,0,0,0.33499573,5.0410679,64.134962)">
      <path
         class="st0"
         d="M 70.295584,18.264388 C 56.225791,6.0814466 31.334294,6.2236633 15.604443,16.519001 L -8.5661605,32.443947 c -5.9200505,3.831063 -9.8750695,9.426662 -10.9941055,15.419959 -0.962102,4.990037 -0.14848,10.074514 2.474658,14.535298 -1.80439,2.430079 -2.993599,5.118585 -3.510473,7.948152 -1.17373,5.953018 0.368986,12.305724 4.269695,17.699598 8.6508051,12.145696 27.406154,18.520596 42.645063,13.112136 L 57.46928,90.06098 C 67.097359,86.696762 74.102234,80.137071 76.175783,72.161615 77.992624,65.39818 76.454094,58.378412 71.64566,52.403913 74.928747,49.005921 77.151782,45.210931 78.13315,41.241401 80.539103,32.640834 77.571708,24.252517 70.295584,18.264388 Z"
         id="path879"
         style="fill:url(#linearGradient1007);fill-opacity:1"
         inkscape:original-d="m 84.056656,14.489929 c -10.9,-15.6999992 -32.6,-20.2999989 -48.2,-10.3999993 0,0 -27.4999995,17.5999993 -27.4999995,17.5999993 -7.50000042,4.699999 -12.7000004,12.399999 -14.2000005,21.099999 -1.3,7.299999 -0.2,14.799999 3.3000001,21.299999 -2.4000001,3.6 -4,7.599999 -4.7000001,11.799999 -1.5999999,8.9 0.5000001,18.099999 5.7000001,25.400004 11.0000004,15.7 32.5999999,20.3 48.1999999,10.4 0,0 27.5,-17.500005 27.5,-17.500005 7.5,-4.699999 12.7,-12.399999 14.2,-21.099999 1.3,-7.299999 0.2,-14.799999 -3.3,-21.299999 2.4,-3.6 4,-7.599999 4.7,-11.799999 1.7,-9 -0.4,-18.199999 -5.7,-25.499999 z" />
      <path
         class="st1"
         d="M 13.042131,92.49061 C 4.9021966,93.258358 -3.1334271,89.74407 -7.4316789,83.915231 -10.010957,80.569482 -10.965627,76.623851 -10.25026,72.864765 c 0.159488,-0.62643 0.3191655,-1.183013 0.479032,-1.810887 l 0.4004968,-1.113162 1.1277421,0.758006 c 2.6958617,1.842754 5.6985629,3.301878 9.02663364,4.368655 l 0.86627036,0.272011 c -0.028959,0.243644 -0.057921,0.487239 -0.086868,0.730784 -0.086814,1.024634 0.2607646,2.152609 0.9585076,3.087666 1.4059174,1.809876 3.9002869,2.830999 6.3474934,2.503289 0.5495214,-0.107211 1.1011405,-0.214832 1.5624339,-0.406057 L 38.17237,68.873652 c 1.560617,-0.701422 2.571992,-1.760934 2.910542,-3.094933 0.339266,-1.336822 -0.11293,-2.771703 -1.125727,-3.873331 -1.784815,-1.932117 -4.860732,-2.770016 -7.770921,-2.204477 -0.639414,0.160457 -1.276211,0.320256 -1.804887,0.561113 l -10.700698,5.188432 c -1.66339,0.818397 -3.500728,1.389908 -5.410418,1.72076 C 6.0628194,68.649237 -2.0375672,65.818849 -6.3696949,60.34069 -8.888563,57.205895 -9.9310945,53.32851 -9.129862,49.489956 c 0.7251909,-3.715618 3.3354448,-7.206818 7.0922948,-9.463857 L 23.366064,24.455704 c 1.72389,-1.071108 3.673955,-1.93807 5.753805,-2.667082 9.60811,-3.05945 20.308503,-1.382279 26.611092,4.47109 3.999961,3.523548 5.524659,8.301752 4.379855,13.184081 -0.253357,0.813939 -0.506337,1.537874 -0.8851,2.355678 l -0.629396,1.447484 -1.749933,-0.801704 c -4.054054,-1.89459 -8.366677,-3.20737 -12.91415,-3.956472 l -1.145785,-0.182253 0.114213,-0.851347 c 0.114294,-1.189745 -0.342396,-2.42319 -1.25191,-3.365994 -1.803708,-1.786107 -4.911934,-2.35914 -7.852399,-1.535938 -0.646028,0.217245 -1.289398,0.433597 -1.823522,0.721955 L 5.2583055,48.488025 c -1.2424981,0.711886 -2.0355393,1.700349 -2.2989017,2.891519 -0.2628724,1.188954 0.087733,2.439344 0.8797881,3.390713 1.4191136,1.696268 3.9370585,2.430428 6.4075971,1.888052 0.554788,-0.155582 1.111704,-0.311761 1.577435,-0.54408 L 21.960969,50.74199 c 1.707892,-0.917239 3.639752,-1.611704 5.700057,-2.157618 9.516119,-2.214657 20.11077,0.378511 26.349453,6.746048 3.958779,3.850223 5.467651,8.734911 4.334737,13.493287 -1.12537,4.550351 -5.066693,8.47181 -10.455646,10.568025 -10.455003,4.174403 -20.263111,8.090519 -29.482561,11.771603 -1.649302,0.672627 -3.471168,1.084559 -5.364878,1.327275 z"
         id="path881"
         inkscape:original-d="m 33.156656,102.78993 c -8.9,2.3 -18.2,-1.2 -23.3999995,-8.700005 -3.2,-4.399999 -4.4,-9.899999 -3.5,-15.299999 0.2,-0.9 0.4,-1.7 0.6,-2.6 0.166666,-0.533333 0.333333,-1.066666 0.5,-1.6 0,0 1.4,1 1.4,1 3.2999995,2.4 6.8999995,4.2 10.7999995,5.4 0.333333,0.1 0.666666,0.2 1,0.3 -0.03333,0.333333 -0.06667,0.666667 -0.1,1 -0.1,1.4 0.3,2.9 1.1,4.1 1.6,2.3 4.4,3.4 7.1,2.7 0.6,-0.2 1.2,-0.4 1.7,-0.7 0,0 27.4,-17.5 27.4,-17.5 1.4,-0.9 2.3,-2.199999 2.6,-3.799999 0.3,-1.6 -0.1,-3.3 -1,-4.6 -1.6,-2.3 -4.4,-3.3 -7.1,-2.6 -0.6,0.2 -1.2,0.4 -1.7,0.7 0,0 -10.5,6.7 -10.5,6.7 -1.7,1.1 -3.6,1.9 -5.6,2.399999 -8.9,2.3 -18.2,-1.199999 -23.4,-8.699999 -3.0999995,-4.4 -4.3999995,-9.9 -3.3999995,-15.299999 0.9,-5.2 4.0999995,-9.9 8.5999995,-12.7 0,0 27.5,-17.499999 27.5,-17.499999 1.7,-1.1 3.6,-1.9 5.6,-2.5 8.9,-2.3 18.2,1.2 23.4,8.7 3.2,4.399999 4.4,9.899999 3.5,15.299999 -0.2,0.9 -0.4,1.7 -0.7,2.6 -0.166667,0.533333 -0.333334,1.066666 -0.5,1.6 -0.466667,-0.333334 -0.933334,-0.666667 -1.4,-1 -3.3,-2.4 -6.9,-4.2 -10.8,-5.4 -0.333334,-0.1 -0.666667,-0.2 -1,-0.3 0,0 0.1,-1 0.1,-1 0.1,-1.4 -0.3,-2.9 -1.1,-4.1 -1.6,-2.3 -4.4,-3.3 -7.1,-2.6 -0.6,0.2 -1.2,0.4 -1.7,0.7 -9.133334,5.833333 -18.266667,11.666666 -27.4,17.5 -1.4,0.9 -2.3,2.199999 -2.6,3.799999 -0.3,1.6 0.1,3.3 1,4.6 1.6,2.3 4.4,3.3 7.1,2.6 0.6,-0.2 1.2,-0.4 1.7,-0.7 0,0 10.5,-6.7 10.5,-6.7 1.7,-1.1 3.6,-1.9 5.6,-2.499999 8.9,-2.3 18.2,1.199999 23.4,8.699999 3.2,4.4 4.4,9.9 3.5,15.299999 -0.9,5.2 -4.1,9.9 -8.6,12.7 -9.166667,5.833333 -18.333334,11.666666 -27.5,17.500004 -1.7,1.1 -3.6,1.9 -5.6,2.5 z" />
    </g>
    <path
       style="fill:none;fill-opacity:1;fill-rule:evenodd;stroke:none;stroke-width:0.4;stroke-miterlimit:4;stroke-dasharray:none;stroke-opacity:1"
       id="rect895"
       width="53"
       height="55.053989"
       x="-10.634523"
       y="57.148903"
       sodipodi:type="rect"
       d="m -10.634523,67.55 53,-11 v 56.35 l -53,-11.8 z" />
  </g>
  <path
     d="M 12,2.5735556 V 52.569436 H 9.00001 V 2.5735556 Z"
     fill="#d53f8c"
     id="path6" />
</svg>
